<svg id="Capa_1" data-name="Capa 1" xmlns="http://www.w3.org/2000/svg" viewBox="0 0 3295 841"><defs><style>.cls-1{fill:#001b32;}.cls-2{fill:#821d25;}</style></defs><title>logo-largo</title><path class="cls-1" d="M1185.34,1869.63a45.41,45.41,0,0,0-5.25.31c-.06-.1-.11-.2-.16-.3l-58.07-100.57a19.41,19.41,0,0,0-16.81-9.71H682a19.39,19.39,0,0,0-16.81,9.71L453.6,2135.47a19.42,19.42,0,0,0,0,19.42l211.55,366.4A19.39,19.39,0,0,0,682,2531h423.09a19.41,19.41,0,0,0,16.81-9.71l58.07-100.57a19.41,19.41,0,0,0-33.63-19.41l-52.46,90.86H693.17l-200.34-347,200.34-347h400.67l52.46,90.87c.33.57.69,1.12,1.06,1.65a44.77,44.77,0,1,0,38-21.08Zm0,64.85a20.07,20.07,0,1,1,20.07-20.07A20.09,20.09,0,0,1,1185.34,1934.48Z" transform="translate(-451 -1690)"/><path class="cls-2" d="M1114.73,2292.36a44.76,44.76,0,0,0-36,71.45L1049.26,2415H737.75L582,2145.18l155.75-269.77h311.51l30.17,52.25a19.41,19.41,0,1,0,33.62-19.41l-35.77-62a19.42,19.42,0,0,0-16.82-9.71H726.54a19.39,19.39,0,0,0-16.81,9.71l-167,289.18a19.46,19.46,0,0,0,0,19.42l167,289.19a19.4,19.4,0,0,0,16.81,9.7h333.92a19.43,19.43,0,0,0,16.82-9.7l35.77-62a2.39,2.39,0,0,0,.12-.22q.78,0,1.56,0a44.78,44.78,0,0,0,0-89.56Zm0,64.85a20.07,20.07,0,1,1,20.07-20.07A20.1,20.1,0,0,1,1114.73,2357.21Z" transform="translate(-451 -1690)"/><path class="cls-1" d="M1465.4,2051.24l-1.73,23.27q-3.47,61.74-68.6,61.73h-34.59q-65.14,0-61.68-61.73l14.41-239.81q3.46-61.73,68.6-61.73h34.59q65.13,0,61.68,61.73l-2.3,41h-54.19l2.3-37.44Q1425,1817,1400.84,1817h-11q-21.33,0-22.48,21.25L1353,2071q-1.17,21.26,20.18,21.25H1387q21.32,0,22.48-21.25l1.73-19.73Z" transform="translate(-451 -1690)"/><path class="cls-1" d="M1553.59,2136.24H1499.4l17.87-301q3.46-62.22,68.6-62.23h40.35q65.15,0,61.68,62.23l-17.87,301h-54.18l7.49-133.06h-62.26Zm72.63-177.08,7.5-120.92q1.14-21.26-22.48-21.25h-15q-23.64,0-24.79,21.25L1564,1959.16Z" transform="translate(-451 -1690)"/><path class="cls-1" d="M1739.21,1773h106.06q62.26,0,58.8,62.23l-5.19,89.56q-2.88,47.55-36.31,60.2l29.4,151.28h-51.31l-27.09-146.72h-32.86l-8.65,146.72h-54.18ZM1783,1948h35.74q24.21,0,25.94-26.31l4.61-78.42Q1851,1817,1826.83,1817h-35.74Z" transform="translate(-451 -1690)"/><path class="cls-1" d="M2060.29,2136.24H1931.16L1952.49,1773h54.19l-19,319.25h74.93Z" transform="translate(-451 -1690)"/><path class="cls-1" d="M2153.67,2136.24q-65.72,0-62.26-61.73l14.41-239.31q3.46-62.22,68.6-62.23h51.89q65.13,0,61.68,62.23l-14.42,239.31q-3.45,61.74-69.17,61.73Zm15-44h27.67q21.9,0,23.06-21.25l14.41-232.73q1.14-21.26-23.06-21.25H2184.8q-23.64,0-24.79,21.25L2145.6,2071Q2144.44,2092.23,2168.66,2092.22Z" transform="translate(-451 -1690)"/><path class="cls-1" d="M2437.29,1870.62l1.73-31.87q1.72-21.75-21.91-21.76h-8.65q-23.05,0-24.78,21.76l-3.46,60.2q-.58,10.13,3.74,13.66a107.63,107.63,0,0,0,14.13,9.11l49.57,24.79q16.71,8.61,23.35,13.41a35.5,35.5,0,0,1,10.38,11.63q3.74,6.84,2.59,26.06l-4.61,77.41q-3.47,61.21-69.18,61.22h-32.86q-65.14,0-61.1-66.79l1.15-18.21h54.19l-1.73,19.73q-1.15,21.26,23.06,21.25h9.8q21.32,0,22.48-21.25l4-61.72q.56-10.12-3.75-13.66a109.5,109.5,0,0,0-14.12-9.11l-49.58-25.8q-16.72-8.09-23.92-13.66a29.17,29.17,0,0,1-10.09-14.42q-2.9-8.85-2.31-23l4.62-74.38q3.45-62.22,68.59-62.23h33.44q65.13,0,61.68,62.23l-2.31,35.42Z" transform="translate(-451 -1690)"/><path class="cls-1" d="M2703,2003.18l2.88-44h82.44L2778,2136.24H2671.9q-62.83,0-59.37-61.22l14.41-239.82q3.45-62.22,66.29-62.23h36.89q69.18,0,65.72,63.25l-2.31,39.46h-54.18l1.73-32.38q1.73-26.29-21.33-26.31h-13.84q-23.64,0-25.36,26.31l-13.26,222.61q-1.73,26.31,21.91,26.31h36.89l5.19-89Z" transform="translate(-451 -1690)"/><path class="cls-1" d="M2873.08,2136.24H2818.9l17.87-301q3.45-62.22,68.6-62.23h40.35q65.13,0,61.68,62.23l-17.87,301h-54.19l7.49-133.06h-62.25Zm72.64-177.08,7.49-120.92q1.15-21.26-22.48-21.25h-15q-23.64,0-24.79,21.25l-7.49,120.92Z" transform="translate(-451 -1690)"/><path class="cls-1" d="M3058.7,1773h106.07q62.25,0,58.8,62.23l-5.19,89.56q-2.9,47.55-36.32,60.2l29.4,151.28h-51.3l-27.1-146.72H3100.2l-8.64,146.72h-54.19ZM3102.51,1948h35.74q24.21,0,25.94-26.31l4.61-78.42q1.72-26.29-22.48-26.31h-35.74Z" transform="translate(-451 -1690)"/><path class="cls-1" d="M3417.83,2051.24l-1.73,23.27q-3.46,61.74-68.6,61.73h-34.59q-65.14,0-61.68-61.73l14.41-239.81q3.46-61.73,68.6-61.73h34.59q65.13,0,61.68,61.73l-2.3,41H3374l2.3-37.44q1.16-21.26-23.05-21.25h-11q-21.33,0-22.48,21.25L3305.42,2071q-1.15,21.26,20.18,21.25h13.83q21.32,0,22.48-21.25l1.73-19.73Z" transform="translate(-451 -1690)"/><polygon class="cls-1" points="3004.3 446.24 3025.63 82.97 3079.81 82.97 3058.48 446.24 3004.3 446.24"/><polygon class="cls-1" points="3071.95 59.7 3033.32 59.7 3063.3 0 3113.45 0 3071.95 59.7"/><path class="cls-1" d="M3611.51,2136.24h-54.19l17.87-301q3.46-62.22,68.6-62.23h40.36q65.13,0,61.68,62.23l-17.87,301h-54.19l7.49-133.06H3619Zm72.64-177.08,7.49-120.92q1.14-21.26-22.48-21.25h-15q-23.64,0-24.79,21.25l-7.49,120.92Z" transform="translate(-451 -1690)"/><path class="cls-2" d="M1364.17,2428.76l2.2-33.53h62.79l-7.9,134.89h-80.8q-47.87,0-45.23-46.64l11-182.68q2.64-47.4,50.5-47.4h28.1q52.7,0,50.06,48.17l-1.75,30.07h-41.28l1.32-24.67q1.3-20-16.25-20h-10.54q-18,0-19.32,20L1337,2476.55q-1.32,20,16.68,20h28.11l4-67.83Z" transform="translate(-451 -1690)"/><path class="cls-2" d="M1470.88,2253.4h80.8q47.41,0,44.79,47.4l-4,68.22q-2.2,36.22-27.67,45.86l22.4,115.24h-39.09l-20.63-111.77h-25l-6.59,111.77h-41.28Zm33.37,133.35h27.23q18.43,0,19.76-20l3.51-59.74q1.32-20-17.13-20H1510.4Z" transform="translate(-451 -1690)"/><path class="cls-2" d="M1665,2530.12q-50.07,0-47.43-47l11-182.3q2.64-47.4,52.26-47.4h39.52q49.6,0,47,47.4l-11,182.3q-2.62,47-52.69,47Zm11.41-33.53h21.08q16.68,0,17.57-16.19l11-177.28q.88-16.2-17.56-16.19h-19.76q-18,0-18.88,16.19l-11,177.28Q1657.94,2496.59,1676.38,2496.59Z" transform="translate(-451 -1690)"/><path class="cls-2" d="M2022.41,2253.4l-61.92,276.72H1915.7l-16.24-160.33-34.26,160.33h-44.79L1791,2253.4h40.84L1849,2460.74l41.71-207.34h32.06l17.12,207.34,41.72-207.34Z" transform="translate(-451 -1690)"/><path class="cls-2" d="M2109.79,2286.93l-14.49,243.19H2054l14.49-243.19H2029l1.76-33.53h120.32l-1.76,33.53Z" transform="translate(-451 -1690)"/><path class="cls-2" d="M2250.75,2530.12l7.46-125.64h-50.94l-7.46,125.64h-41.28l16.25-276.72h41.28L2209,2371H2260l7-117.55h41.28L2292,2530.12Z" transform="translate(-451 -1690)"/><path class="cls-2" d="M2491.82,2530.12l7.47-125.64h-50.94l-7.47,125.64h-41.27l16.24-276.72h41.28l-7,117.55H2501l7-117.55h41.27l-16.24,276.72Z" transform="translate(-451 -1690)"/><path class="cls-2" d="M2610.82,2530.12h-41.28l13.62-229.32q2.63-47.4,52.25-47.4h30.74q49.62,0,47,47.4l-13.62,229.32h-41.27l5.7-101.36h-47.42Zm55.33-134.89,5.71-92.11q.87-16.2-17.13-16.19h-11.41q-18,0-18.89,16.19l-5.71,92.11Z" transform="translate(-451 -1690)"/><path class="cls-2" d="M2863.31,2465.37,2862,2483.1q-2.62,47-52.25,47h-26.35q-49.62,0-47-47l11-182.68q2.64-47,52.26-47H2826q49.62,0,47,47l-1.76,31.22h-41.27l1.75-28.52q.89-16.2-17.56-16.19h-8.34q-16.26,0-17.13,16.19l-11,177.28q-.88,16.18,15.37,16.19h10.54q16.24,0,17.13-16.19l1.31-15Z" transform="translate(-451 -1690)"/><path class="cls-2" d="M2932.69,2530.12h-41.28l16.25-276.72h41.27Zm95.28,0H2986.7l-43.91-135.28v-2.31l51.37-139.13h37.77L2980.55,2391Z" transform="translate(-451 -1690)"/><path class="cls-2" d="M3051.68,2530.12l16.25-276.72h102.75l-1.75,33.53h-61.48l-5.27,84h54.45l-1.75,33.53h-54.45l-5.71,92.11h61.47l-1.75,33.53Z" transform="translate(-451 -1690)"/><path class="cls-2" d="M3200.1,2253.4h80.8q47.43,0,44.79,47.4l-4,68.22q-2.2,36.22-27.67,45.86l22.4,115.24h-39.08l-20.64-111.77h-25l-6.59,111.77h-41.27Zm33.38,133.35h27.22q18.45,0,19.76-20L3284,2307q1.32-20-17.12-20h-27.23Z" transform="translate(-451 -1690)"/></svg>