<?xml version="1.0" encoding="utf-8"?>
<!-- Generator: Adobe Illustrator 23.0.5, SVG Export Plug-In . SVG Version: 6.00 Build 0)  -->
<svg version="1.1" id="Capa_1" xmlns="http://www.w3.org/2000/svg" xmlns:xlink="http://www.w3.org/1999/xlink" x="0px" y="0px"
	 viewBox="0 0 4000 4000" style="enable-background:new 0 0 4000 4000;" xml:space="preserve">
<style type="text/css">
	.st0{fill:#001B32;}
	.st1{fill:#821D25;}
</style>
<path class="st0" d="M2815.65,1219.38c-5.03,0-10,0.3-14.88,0.88c-0.16-0.28-0.3-0.57-0.46-0.85l-164.5-284.92
	c-9.83-17.02-27.98-27.5-47.63-27.5H1389.6c-19.65,0-37.81,10.48-47.63,27.5l-599.29,1038c-9.82,17.02-9.82,37.98,0,55l599.29,1038
	c9.82,17.02,27.98,27.5,47.63,27.5h1198.58c19.65,0,37.81-10.48,47.63-27.5l164.5-284.92c15.19-26.31,6.18-59.94-20.13-75.13
	c-26.31-15.19-59.94-6.17-75.13,20.13L2556.43,2983H1421.36l-567.54-983l567.54-983h1135.07l148.62,257.42
	c0.94,1.62,1.95,3.18,3.02,4.67c-12.21,19.49-19.28,42.51-19.28,67.16c0,69.95,56.91,126.86,126.86,126.86
	c69.95,0,126.86-56.91,126.86-126.86S2885.6,1219.38,2815.65,1219.38z M2815.65,1403.11c-31.35,0-56.86-25.51-56.86-56.86
	s25.51-56.86,56.86-56.86s56.86,25.51,56.86,56.86S2847,1403.11,2815.65,1403.11z"/>
<path class="st1" d="M2615.62,2416.94c-69.95,0-126.86,56.91-126.86,126.86c0,28.29,9.31,54.44,25.02,75.56l-83.65,144.89h-882.48
	L1106.42,2000l441.24-764.25h882.48l85.47,148.04c15.19,26.31,48.83,35.32,75.13,20.13c26.31-15.19,35.32-48.83,20.13-75.13
	l-101.35-175.54c-9.83-17.02-27.98-27.5-47.63-27.5H1515.9c-19.65,0-37.81,10.48-47.63,27.5L995.28,1972.5
	c-9.82,17.02-9.82,37.98,0,55l472.99,819.25c9.82,17.02,27.98,27.5,47.63,27.5h945.99c19.65,0,37.81-10.48,47.63-27.5l101.35-175.54
	c0.12-0.21,0.23-0.42,0.34-0.63c1.47,0.05,2.94,0.09,4.41,0.09c69.95,0,126.86-56.91,126.86-126.86S2685.57,2416.94,2615.62,2416.94
	z M2615.62,2600.66c-31.35,0-56.86-25.51-56.86-56.86s25.51-56.86,56.86-56.86s56.86,25.51,56.86,56.86
	S2646.98,2600.66,2615.62,2600.66z"/>
<g>
	<path class="st0" d="M1514.88,1869.14l-1.41,19.01c-1.88,33.61-20.56,50.41-56.02,50.41h-28.25c-35.47,0-52.26-16.8-50.37-50.41
		l11.77-195.85c1.88-33.6,20.55-50.41,56.02-50.41h28.25c35.46,0,52.26,16.81,50.37,50.41l-1.88,33.47h-44.25l1.88-30.58
		c0.63-11.57-5.65-17.35-18.83-17.35h-8.94c-11.62,0-17.74,5.78-18.36,17.35l-11.77,190.07c-0.63,11.57,4.86,17.35,16.48,17.35h11.3
		c11.61,0,17.73-5.78,18.36-17.35l1.41-16.11H1514.88z"/>
	<path class="st0" d="M1586.91,1938.56h-44.25l14.59-245.85c1.88-33.88,20.55-50.82,56.02-50.82h32.96
		c35.46,0,52.26,16.94,50.37,50.82L1682,1938.56h-44.25l6.12-108.67h-50.85L1586.91,1938.56z M1646.22,1793.94l6.12-98.75
		c0.63-11.57-5.5-17.35-18.36-17.35h-12.24c-12.87,0-19.62,5.78-20.24,17.35l-6.12,98.75H1646.22z"/>
	<path class="st0" d="M1738.5,1641.89h86.63c33.9,0,49.9,16.94,48.02,50.82l-4.24,73.14c-1.57,25.9-11.46,42.29-29.66,49.17
		l24.01,123.55h-41.9l-22.13-119.83h-26.83l-7.06,119.83h-44.25L1738.5,1641.89z M1774.28,1784.85h29.19
		c13.18,0,20.24-7.16,21.19-21.49l3.77-64.05c0.94-14.32-5.18-21.49-18.36-21.49h-29.19L1774.28,1784.85z"/>
	<path class="st0" d="M2000.72,1938.56h-105.46l17.42-296.68h44.25l-15.54,260.73h61.2L2000.72,1938.56z"/>
	<path class="st0" d="M2076.99,1938.56c-35.78,0-52.73-16.8-50.85-50.41l11.77-195.44c1.88-33.88,20.55-50.82,56.02-50.82h42.37
		c35.46,0,52.26,16.94,50.37,50.82l-11.77,195.44c-1.88,33.61-20.71,50.41-56.5,50.41H2076.99z M2089.23,1902.61h22.6
		c11.92,0,18.2-5.78,18.83-17.35l11.77-190.07c0.63-11.57-5.65-17.35-18.83-17.35h-21.19c-12.87,0-19.62,5.78-20.24,17.35
		l-11.77,190.07C2069.76,1896.83,2076.04,1902.61,2089.23,1902.61z"/>
	<path class="st0" d="M2308.61,1721.63l1.41-26.03c0.94-11.84-5.02-17.77-17.89-17.77h-7.06c-12.56,0-19.3,5.93-20.24,17.77
		l-2.82,49.17c-0.32,5.51,0.71,9.23,3.06,11.16c2.35,1.93,6.19,4.41,11.53,7.44l40.49,20.25c9.1,4.69,15.46,8.33,19.07,10.95
		c3.6,2.62,6.43,5.78,8.47,9.5c2.04,3.72,2.74,10.81,2.12,21.28l-3.77,63.22c-1.88,33.33-20.71,50-56.49,50h-26.83
		c-35.47,0-52.1-18.18-49.9-54.54l0.94-14.88h44.25l-1.41,16.11c-0.63,11.57,5.65,17.35,18.83,17.35h8
		c11.61,0,17.73-5.78,18.36-17.35l3.3-50.41c0.31-5.51-0.71-9.23-3.06-11.16c-2.35-1.92-6.2-4.4-11.53-7.44l-40.49-21.07
		c-9.11-4.4-15.62-8.12-19.54-11.16c-3.93-3.03-6.67-6.95-8.24-11.78c-1.57-4.82-2.2-11.09-1.88-18.8l3.77-60.74
		c1.88-33.88,20.55-50.82,56.02-50.82h27.31c35.46,0,52.26,16.94,50.38,50.82l-1.88,28.92H2308.61z"/>
	<path class="st0" d="M2525.64,1829.89l2.35-35.95h67.32l-8.47,144.62h-86.63c-34.21,0-50.37-16.66-48.49-50l11.77-195.86
		c1.88-33.88,19.93-50.82,54.14-50.82h30.13c37.66,0,55.55,17.22,53.67,51.65l-1.88,32.23h-44.25l1.41-26.44
		c0.94-14.32-4.87-21.49-17.42-21.49H2528c-12.87,0-19.77,7.17-20.71,21.49l-10.83,181.81c-0.94,14.33,5.02,21.49,17.89,21.49h30.13
		l4.24-72.72H2525.64z"/>
	<path class="st0" d="M2664.53,1938.56h-44.25l14.59-245.85c1.88-33.88,20.55-50.82,56.02-50.82h32.96
		c35.46,0,52.26,16.94,50.37,50.82l-14.59,245.85h-44.25l6.12-108.67h-50.84L2664.53,1938.56z M2723.85,1793.94l6.12-98.75
		c0.63-11.57-5.5-17.35-18.36-17.35h-12.24c-12.87,0-19.62,5.78-20.24,17.35l-6.12,98.75H2723.85z"/>
	<path class="st0" d="M2816.12,1641.89h86.63c33.9,0,49.9,16.94,48.02,50.82l-4.24,73.14c-1.57,25.9-11.46,42.29-29.66,49.17
		l24.01,123.55h-41.9l-22.13-119.83h-26.83l-7.06,119.83h-44.25L2816.12,1641.89z M2851.9,1784.85h29.19
		c13.18,0,20.24-7.16,21.19-21.49l3.77-64.05c0.94-14.32-5.18-21.49-18.36-21.49h-29.19L2851.9,1784.85z"/>
	<path class="st0" d="M3109.42,1869.14l-1.41,19.01c-1.88,33.61-20.56,50.41-56.02,50.41h-28.25c-35.47,0-52.26-16.8-50.38-50.41
		l11.77-195.85c1.88-33.6,20.55-50.41,56.02-50.41h28.25c35.46,0,52.26,16.81,50.37,50.41l-1.88,33.47h-44.25l1.88-30.58
		c0.63-11.57-5.65-17.35-18.83-17.35h-8.95c-11.62,0-17.74,5.78-18.36,17.35l-11.77,190.07c-0.63,11.57,4.86,17.35,16.48,17.35h11.3
		c11.61,0,17.73-5.78,18.36-17.35l1.41-16.11H3109.42z"/>
	<polygon class="st0" points="3140.01,1938.56 3157.43,1641.89 3201.69,1641.89 3184.27,1938.56 	"/>
	<polygon class="st0" points="3195.27,1622.88 3163.72,1622.88 3188.2,1574.12 3229.16,1574.12 	"/>
	<path class="st0" d="M3267.59,1938.56h-44.25l14.59-245.85c1.88-33.88,20.55-50.82,56.02-50.82h32.96
		c35.46,0,52.26,16.94,50.37,50.82l-14.59,245.85h-44.25l6.12-108.67h-50.84L3267.59,1938.56z M3326.91,1793.94l6.12-98.75
		c0.63-11.57-5.5-17.35-18.36-17.35h-12.24c-12.87,0-19.62,5.78-20.24,17.35l-6.12,98.75H3326.91z"/>
</g>
<g>
	<path class="st1" d="M1432.21,2177.46l1.79-27.38h51.28l-6.46,110.16h-65.99c-26.06,0-38.37-12.69-36.94-38.08l8.97-149.19
		c1.43-25.81,15.18-38.71,41.24-38.71h22.95c28.69,0,42.32,13.12,40.88,39.34l-1.43,24.55h-33.71l1.08-20.14
		c0.72-10.91-3.71-16.37-13.27-16.37H1434c-9.81,0-15.06,5.46-15.78,16.37l-8.25,138.49c-0.72,10.91,3.82,16.37,13.63,16.37h22.95
		l3.23-55.4H1432.21z"/>
	<path class="st1" d="M1519.36,2034.25h65.99c25.82,0,38.01,12.91,36.58,38.71l-3.23,55.71c-1.2,19.73-8.73,32.21-22.59,37.46
		l18.29,94.11h-31.92l-16.86-91.28h-20.44l-5.38,91.28h-33.71L1519.36,2034.25z M1546.61,2143.15h22.23
		c10.04,0,15.42-5.45,16.14-16.37l2.87-48.79c0.72-10.91-3.95-16.37-13.99-16.37h-22.23L1546.61,2143.15z"/>
	<path class="st1" d="M1677.87,2260.24c-27.26,0-40.17-12.8-38.73-38.4l8.97-148.88c1.43-25.81,15.66-38.71,42.68-38.71h32.28
		c27.01,0,39.81,12.91,38.37,38.71l-8.97,148.88c-1.43,25.6-15.78,38.4-43.04,38.4H1677.87z M1687.19,2232.86h17.21
		c9.08,0,13.86-4.41,14.34-13.22l8.97-144.79c0.48-8.81-4.3-13.22-14.35-13.22h-16.14c-9.81,0-14.94,4.41-15.42,13.22l-8.97,144.79
		C1672.36,2228.45,1677.15,2232.86,1687.19,2232.86z"/>
	<path class="st1" d="M1969.79,2034.25l-50.57,225.99h-36.58l-13.27-130.94l-27.97,130.94h-36.58l-24.03-225.99h33.35l13.99,169.34
		l34.07-169.34h26.18l13.99,169.34l34.07-169.34H1969.79z"/>
	<path class="st1" d="M2041.15,2061.63l-11.83,198.61h-33.71l11.83-198.61h-32.28l1.43-27.38h98.26l-1.43,27.38H2041.15z"/>
	<path class="st1" d="M2156.27,2260.24l6.1-102.61h-41.6l-6.1,102.61h-33.71l13.27-225.99h33.71l-5.74,96h41.6l5.74-96h33.71
		l-13.27,225.99H2156.27z"/>
	<path class="st1" d="M2353.15,2260.24l6.1-102.61h-41.6l-6.1,102.61h-33.71l13.27-225.99h33.71l-5.74,96h41.6l5.74-96h33.71
		l-13.27,225.99H2353.15z"/>
	<path class="st1" d="M2450.34,2260.24h-33.71l11.12-187.28c1.43-25.81,15.66-38.71,42.68-38.71h25.1
		c27.01,0,39.81,12.91,38.37,38.71l-11.12,187.28h-33.71l4.66-82.78H2455L2450.34,2260.24z M2495.52,2150.08l4.66-75.23
		c0.48-8.81-4.19-13.22-13.99-13.22h-9.32c-9.81,0-14.95,4.41-15.42,13.22l-4.66,75.23H2495.52z"/>
	<path class="st1" d="M2656.54,2207.36l-1.08,14.48c-1.43,25.6-15.66,38.4-42.68,38.4h-21.52c-27.02,0-39.81-12.8-38.37-38.4
		l8.97-149.19c1.43-25.6,15.66-38.4,42.68-38.4h21.52c27.01,0,39.81,12.8,38.37,38.4l-1.43,25.5h-33.71l1.43-23.29
		c0.48-8.81-4.3-13.22-14.34-13.22h-6.81c-8.85,0-13.51,4.41-13.99,13.22l-8.97,144.79c-0.48,8.81,3.7,13.22,12.55,13.22h8.61
		c8.84,0,13.5-4.41,13.99-13.22l1.08-12.28H2656.54z"/>
	<path class="st1" d="M2713.2,2260.24h-33.71l13.27-225.99h33.71L2713.2,2260.24z M2791.02,2260.24h-33.71l-35.86-110.48v-1.89
		l41.96-113.63h30.84l-41.96,112.37L2791.02,2260.24z"/>
	<path class="st1" d="M2810.39,2260.24l13.27-225.99h83.92l-1.43,27.38h-50.21l-4.3,68.62h44.47l-1.43,27.38h-44.47l-4.66,75.23
		h50.21l-1.43,27.38H2810.39z"/>
	<path class="st1" d="M2931.6,2034.25h65.99c25.82,0,38.01,12.91,36.58,38.71l-3.23,55.71c-1.2,19.73-8.73,32.21-22.59,37.46
		l18.29,94.11h-31.92l-16.86-91.28h-20.44l-5.38,91.28h-33.71L2931.6,2034.25z M2958.86,2143.15h22.23
		c10.04,0,15.42-5.45,16.14-16.37l2.87-48.79c0.72-10.91-3.95-16.37-13.99-16.37h-22.24L2958.86,2143.15z"/>
</g>
</svg>
